name GIL06_xslow1.mot
datacolumns 153
datarows 4
range 1.58333337 1.60833335
endheader

                time	           pelvis_tx	           pelvis_ty	           pelvis_tz	         pelvis_tilt	         pelvis_list	     pelvis_rotation	       hip_flexion_r	     hip_adduction_r	      hip_rotation_r	        knee_angle_r	       ankle_angle_r	    subtalar_angle_r	         mtp_angle_r	       hip_flexion_l	     hip_adduction_l	      hip_rotation_l	        knee_angle_l	       ankle_angle_l	    subtalar_angle_l	         mtp_angle_l	    lumbar_extension	      lumbar_bending	     lumbar_rotation	     ground_force_vx	     ground_force_vy	     ground_force_vz	     ground_force_px	     ground_force_py	     ground_force_pz	     ground_force_vx	     ground_force_vy	     ground_force_vz	     ground_force_px	     ground_force_py	     ground_force_pz	     ground_torque_x	     ground_torque_y	     ground_torque_z	     ground_torque_x	     ground_torque_y	     ground_torque_z	    ground_marker_px	    ground_marker_py	    ground_marker_pz	    ground_marker_px	    ground_marker_py	    ground_marker_pz	    ground_marker_px	    ground_marker_py	    ground_marker_pz	    ground_marker_px	    ground_marker_py	    ground_marker_pz	    ground_marker_px	    ground_marker_py	    ground_marker_pz	    ground_marker_px	    ground_marker_py	    ground_marker_pz	    ground_marker_px	    ground_marker_py	    ground_marker_pz	    ground_marker_px	    ground_marker_py	    ground_marker_pz	    ground_marker_px	    ground_marker_py	    ground_marker_pz	    ground_marker_px	    ground_marker_py	    ground_marker_pz	    ground_marker_px	    ground_marker_py	    ground_marker_pz	    ground_marker_px	    ground_marker_py	    ground_marker_pz	    ground_marker_px	    ground_marker_py	    ground_marker_pz	    ground_marker_px	    ground_marker_py	    ground_marker_pz	    ground_marker_px	    ground_marker_py	    ground_marker_pz	    ground_marker_px	    ground_marker_py	    ground_marker_pz	    ground_marker_px	    ground_marker_py	    ground_marker_pz	    ground_marker_px	    ground_marker_py	    ground_marker_pz	    ground_marker_px	    ground_marker_py	    ground_marker_pz	    ground_marker_px	    ground_marker_py	    ground_marker_pz	    ground_marker_px	    ground_marker_py	    ground_marker_pz	    ground_marker_px	    ground_marker_py	    ground_marker_pz	    ground_marker_px	    ground_marker_py	    ground_marker_pz	    ground_marker_px	    ground_marker_py	    ground_marker_pz	    ground_marker_px	    ground_marker_py	    ground_marker_pz	    ground_marker_px	    ground_marker_py	    ground_marker_pz	    ground_marker_px	    ground_marker_py	    ground_marker_pz	    ground_marker_px	    ground_marker_py	    ground_marker_pz	    ground_marker_px	    ground_marker_py	    ground_marker_pz	    ground_marker_px	    ground_marker_py	    ground_marker_pz	    ground_marker_px	    ground_marker_py	    ground_marker_pz	    ground_marker_px	    ground_marker_py	    ground_marker_pz	    ground_marker_px	    ground_marker_py	    ground_marker_pz	    ground_marker_px	    ground_marker_py	    ground_marker_pz	    ground_marker_px	    ground_marker_py	    ground_marker_pz	    ground_marker_px	    ground_marker_py	    ground_marker_pz	    ground_marker_px	    ground_marker_py	    ground_marker_pz	
          1.58333337	          0.86833709	          0.84501553	         -0.19842725	         -5.05158043	         -1.57239199	         -0.22725858	          4.94686127	          8.98022842	         -0.46104839	         -1.31659174	         -1.08859468	          0.00000000	          0.00000000	         27.90819168	        -11.55983543	          3.64706850	        -54.16131592	          7.09764385	          0.00000000	          0.00000000	        -10.96237850	          1.58387637	          4.35746813	        -19.43079714	        800.79942621	        -27.54866167	          0.77658746	          0.00000000	         -0.17414645	          0.00000000	          0.00000000	          0.00000000	          0.44902380	          0.00000000	         -0.28392966	          0.00000000	          0.70751941	          0.00000000	          0.00000000	          0.00000000	          0.00000000	          0.75885695	          0.77022052	         -0.19733757	          0.73981053	          0.77698481	         -0.11817126	          0.73914844	          0.77272111	         -0.27374053	          0.73896384	          0.42091724	         -0.16447848	          0.88683921	          0.41964862	         -0.34264877	          0.72973412	          0.06034033	         -0.19303426	          0.70361811	          0.11264331	         -0.32100338	          0.86833709	          0.84501553	         -0.19842725	          0.86887127	          0.84845567	         -0.07290858	          0.86780292	          0.84157544	         -0.32394591	          0.62482560	          0.92273647	         -0.16570939	          0.62137586	          0.91803503	         -0.22052804	          0.73866981	          0.41169697	         -0.09357610	          0.88517714	          0.43267056	         -0.41293332	          0.73095417	          0.43155667	         -0.23706162	          0.89510059	          0.39408150	         -0.25045583	          0.71934068	          0.05767816	         -0.15605941	          0.68757963	          0.11971939	         -0.35640043	          0.73434025	          0.07404739	         -0.22871456	          0.70981407	          0.13050984	         -0.28056672	          0.67164236	          1.34843349	         -0.19625045	          0.79547340	          1.27133238	         -0.16816200	          0.78976184	          1.27293587	         -0.24952628	          0.77460831	          1.26837826	         -0.22008139	          0.82015932	          1.19069648	         -0.22337855	          0.89661831	          0.55101544	         -0.06417488	          0.98228383	          0.65516597	         -0.30538577	          0.86355937	          0.57792163	         -0.08411495	          0.93335110	          0.64969146	         -0.31627616	          0.83339089	          0.50803214	         -0.10169988	          0.94854867	          0.57723749	         -0.32130933	          0.81326431	          0.20055118	         -0.15257268	          0.73501360	          0.21255113	         -0.43045381	          0.76718402	          0.20926028	         -0.16396162	          0.74427468	          0.22383611	         -0.38405222	          0.83707333	          0.04377184	         -0.18507574	          0.78673500	          0.06639000	         -0.34383854	
          1.59166670	          0.87148798	          0.84479767	         -0.19812414	         -5.14779091	         -1.54001856	         -0.34842178	          4.80771828	          9.00002193	         -0.51809549	         -1.30856037	         -0.91268718	          0.00000000	          0.00000000	         28.46131134	        -11.36392021	          4.25740528	        -52.43579483	          7.70481014	          0.00000000	          0.00000000	        -10.87831593	          1.66626465	          4.02095270	        -16.48672163	        801.39793175	        -27.14465333	          0.77712866	          0.00000000	         -0.17404123	          0.00000000	          0.00000000	          0.00000000	          0.44984427	          0.00000000	         -0.28338339	          0.00000000	          0.88075793	          0.00000000	          0.00000000	          0.00000000	          0.00000000	          0.76190031	          0.77019525	         -0.19725284	          0.74267602	          0.77698213	         -0.11814395	          0.74234718	          0.77270657	         -0.27371398	          0.74049139	          0.42088854	         -0.16455157	          0.89315075	          0.42051983	         -0.34102792	          0.72989899	          0.06038717	         -0.19317521	          0.72111160	          0.10748155	         -0.32109621	          0.87148798	          0.84479767	         -0.19812414	          0.87175328	          0.84824759	         -0.07259750	          0.87122262	          0.84134775	         -0.32365078	          0.62798584	          0.92293394	         -0.16559799	          0.62460124	          0.91825902	         -0.22046745	          0.73992896	          0.41165215	         -0.09365290	          0.89231575	          0.43359670	         -0.41131696	          0.73429900	          0.42875707	         -0.23692764	          0.89974815	          0.39493927	         -0.24936602	          0.71940792	          0.05776163	         -0.15622532	          0.70478803	          0.11420272	         -0.35643202	          0.73399961	          0.07448347	         -0.22892165	          0.72677839	          0.12500708	         -0.28052413	          0.67514020	          1.34855032	         -0.19611950	          0.79886174	          1.27121806	         -0.16827188	          0.79381233	          1.27280176	         -0.24975611	          0.77837420	          1.26837945	         -0.21996751	          0.82393181	          1.19054592	         -0.22329746	          0.89835835	          0.55045694	         -0.06368611	          0.98609680	          0.65662038	         -0.30231079	          0.86391586	          0.57765394	         -0.08393467	          0.93756449	          0.65067536	         -0.31419966	          0.83532697	          0.50723618	         -0.10160229	          0.95333117	          0.57874233	         -0.31890300	          0.81372142	          0.20020787	         -0.15256362	          0.74884856	          0.20919551	         -0.43005854	          0.76760083	          0.20932110	         -0.16369326	          0.75767708	          0.22023240	         -0.38330150	          0.83703125	          0.04374193	         -0.18495512	          0.80603886	          0.06533574	         -0.34412864	
          1.60000002	          0.87462491	          0.84465975	         -0.19785048	         -5.22149086	         -1.49428487	         -0.43944910	          4.64588547	          9.00278950	         -0.57790554	         -1.29912555	         -0.75192028	          0.00000000	          0.00000000	         28.96670532	        -11.13415623	          4.83414602	        -50.65872574	          8.21870995	          0.00000000	          0.00000000	        -10.89873219	          1.66337121	          4.21472597	        -13.84594351	        801.85929841	        -26.83743253	          0.77778296	          0.00000000	         -0.17395987	          0.00000000	          0.00000000	          0.00000000	          0.45073547	          0.00000000	         -0.28285306	          0.00000000	          1.05118237	          0.00000000	          0.00000000	          0.00000000	          0.00000000	          0.76495492	          0.77020741	         -0.19715998	          0.74558872	          0.77698112	         -0.11811619	          0.74552733	          0.77275145	         -0.27368781	          0.74203998	          0.42083770	         -0.16465954	          0.89929026	          0.42133698	         -0.33937246	          0.73007542	          0.06045245	         -0.19331303	          0.73873961	          0.10255928	         -0.32116818	          0.87462491	          0.84465975	         -0.19785048	          0.87467444	          0.84807223	         -0.07233653	          0.87457538	          0.84124726	         -0.32336444	          0.63113087	          0.92311156	         -0.16551512	          0.62783998	          0.91844296	         -0.22041444	          0.74123549	          0.41158083	         -0.09376588	          0.89923650	          0.43445113	         -0.40965948	          0.73397243	          0.42942730	         -0.23667666	          0.90296668	          0.39601806	         -0.24845128	          0.71951342	          0.05786669	         -0.15638056	          0.72215289	          0.10889815	         -0.35645202	          0.73344749	          0.07501879	         -0.22913326	          0.74409395	          0.11988769	         -0.28054556	          0.67886150	          1.34884560	         -0.19609591	          0.80270737	          1.27117479	         -0.16790418	          0.79750848	          1.27287054	         -0.24984020	          0.78213817	          1.26838648	         -0.21991198	          0.82755542	          1.19053280	         -0.22329159	          0.90010130	          0.54992300	         -0.06330362	          0.98988742	          0.65793520	         -0.29939097	          0.86482286	          0.57733959	         -0.08344835	          0.94205743	          0.65192777	         -0.31211391	          0.83596939	          0.50663012	         -0.10158303	          0.95796692	          0.57985473	         -0.31659865	          0.81419325	          0.19985187	         -0.15263286	          0.76275039	          0.20593597	         -0.42963031	          0.76776606	          0.20945697	         -0.16341190	          0.77137887	          0.21701911	         -0.38268730	          0.83698773	          0.04370487	         -0.18486769	          0.82528889	          0.06446460	         -0.34425479	
          1.60833335	          0.87774289	          0.84459007	         -0.19760388	         -5.27519608	         -1.42901492	         -0.50302637	          4.46924591	          8.98210239	         -0.64428151	         -1.29489481	         -0.60777646	          0.00000000	          0.00000000	         29.42991638	        -10.86485291	          5.35810804	        -48.85572433	          8.64485359	          0.00000000	          0.00000000	        -11.09904289	          1.64605379	          4.66748428	        -11.55967041	        802.08392091	        -26.63238466	          0.77859912	          0.00000000	         -0.17389438	          0.00000000	          0.00000000	          0.00000000	          0.45171280	          0.00000000	         -0.28235315	          0.00000000	          1.21970984	          0.00000000	          0.00000000	          0.00000000	          0.00000000	          0.76801610	          0.77024519	         -0.19708377	          0.74853396	          0.77696848	         -0.11810134	          0.74868608	          0.77285683	         -0.27367607	          0.74363124	          0.42076224	         -0.16480586	          0.90528363	          0.42211044	         -0.33768031	          0.73027825	          0.06053716	         -0.19343510	          0.75642580	          0.09793907	         -0.32120788	          0.87774289	          0.84459007	         -0.19760388	          0.87762010	          0.84790641	         -0.07212207	          0.87786561	          0.84127373	         -0.32308570	          0.63425535	          0.92326701	         -0.16547722	          0.63108552	          0.91858763	         -0.22038691	          0.74260235	          0.41148183	         -0.09391817	          0.90595186	          0.43523386	         -0.40796244	          0.73378885	          0.43204576	         -0.23752667	          0.90524185	          0.39703891	         -0.24718009	          0.71966732	          0.05799612	         -0.15651356	          0.73961562	          0.10386706	         -0.35645735	          0.73323685	          0.07518997	         -0.22929639	          0.76164347	          0.11527018	         -0.28062701	          0.68350172	          1.34897816	         -0.19637291	          0.80669665	          1.27114916	         -0.16761789	          0.80098540	          1.27308798	         -0.24970028	          0.78597784	          1.26839793	         -0.21988864	          0.83089763	          1.19056726	         -0.22346452	          0.90184891	          0.54941338	         -0.06301290	          0.99367619	          0.65913153	         -0.29666716	          0.86710370	          0.57657450	         -0.08287572	          0.94644707	          0.65287149	         -0.30972120	          0.83694297	          0.50610346	         -0.10178710	          0.96196371	          0.58076501	         -0.31426299	          0.81468993	          0.19948058	         -0.15276527	          0.77671874	          0.20279564	         -0.42916176	          0.76790965	          0.20934209	         -0.16341729	          0.78514361	          0.21387374	         -0.38243058	          0.83695918	          0.04365861	         -0.18481758	          0.84443921	          0.06380375	         -0.34425864	
